<?xml version="1.0" encoding="UTF-8"?>
<svg xmlns="http://www.w3.org/2000/svg" xmlns:xlink="http://www.w3.org/1999/xlink" width="575px" height="575px" viewBox="0 0 575 575" version="1.1">
<defs>
<filter id="alpha" filterUnits="objectBoundingBox" x="0%" y="0%" width="100%" height="100%">
  <feColorMatrix type="matrix" in="SourceGraphic" values="0 0 0 0 1 0 0 0 0 1 0 0 0 0 1 0 0 0 1 0"/>
</filter>
<mask id="mask0">
  <g filter="url(#alpha)">
<rect x="0" y="0" width="575" height="575" style="fill:rgb(0%,0%,0%);fill-opacity:0.2;stroke:none;"/>
  </g>
</mask>
<clipPath id="clip1">
  <rect x="0" y="0" width="575" height="575"/>
</clipPath>
<g id="surface5" clip-path="url(#clip1)">
<path style=" stroke:none;fill-rule:nonzero;fill:rgb(0%,0%,0%);fill-opacity:1;" d="M 76.367188 215.625 L 480.664062 215.625 C 493.070312 215.625 503.125 225.679688 503.125 238.085938 L 503.125 480.664062 C 503.125 493.070312 493.070312 503.125 480.664062 503.125 L 76.367188 503.125 C 63.960938 503.125 53.90625 493.070312 53.90625 480.664062 L 53.90625 238.085938 C 53.90625 225.679688 63.960938 215.625 76.367188 215.625 Z M 76.367188 215.625 "/>
</g>
<mask id="mask1">
  <g filter="url(#alpha)">
<rect x="0" y="0" width="575" height="575" style="fill:rgb(0%,0%,0%);fill-opacity:0.2;stroke:none;"/>
  </g>
</mask>
<clipPath id="clip2">
  <rect x="0" y="0" width="575" height="575"/>
</clipPath>
<g id="surface8" clip-path="url(#clip2)">
<path style=" stroke:none;fill-rule:nonzero;fill:rgb(0%,0%,0%);fill-opacity:1;" d="M 76.367188 179.6875 L 480.664062 179.6875 C 493.070312 179.6875 503.125 189.742188 503.125 202.148438 L 503.125 444.726562 C 503.125 457.132812 493.070312 467.1875 480.664062 467.1875 L 76.367188 467.1875 C 63.960938 467.1875 53.90625 457.132812 53.90625 444.726562 L 53.90625 202.148438 C 53.90625 189.742188 63.960938 179.6875 76.367188 179.6875 Z M 76.367188 179.6875 "/>
</g>
<mask id="mask2">
  <g filter="url(#alpha)">
<rect x="0" y="0" width="575" height="575" style="fill:rgb(0%,0%,0%);fill-opacity:0.101961;stroke:none;"/>
  </g>
</mask>
<clipPath id="clip3">
  <rect x="0" y="0" width="575" height="575"/>
</clipPath>
<g id="surface11" clip-path="url(#clip3)">
<path style=" stroke:none;fill-rule:nonzero;fill:rgb(100%,100%,100%);fill-opacity:1;" d="M 76.367188 89.84375 C 63.921875 89.84375 53.90625 99.859375 53.90625 112.304688 L 53.90625 130.273438 C 53.90625 117.828125 63.921875 107.8125 76.367188 107.8125 L 229.101562 107.8125 C 241.554688 107.8125 251.5625 117.828125 251.5625 130.273438 L 251.5625 143.75 L 480.664062 143.75 C 493.097656 143.75 503.125 153.769531 503.125 166.210938 L 503.125 148.242188 C 503.125 135.796875 493.097656 125.78125 480.664062 125.78125 L 251.5625 125.78125 L 251.5625 112.304688 C 251.5625 99.859375 241.554688 89.84375 229.101562 89.84375 Z M 76.367188 89.84375 "/>
</g>
</defs>
<g id="surface1">
<use xlink:href="#surface5" mask="url(#mask0)"/>
<path style=" stroke:none;fill-rule:nonzero;fill:rgb(7.058824%,50.196078%,41.568627%);fill-opacity:1;" d="M 53.90625 390.820312 C 53.90625 403.253906 63.921875 413.28125 76.367188 413.28125 L 480.664062 413.28125 C 493.097656 413.28125 503.125 403.253906 503.125 390.820312 L 503.125 148.242188 C 503.125 135.796875 493.097656 125.78125 480.664062 125.78125 L 251.5625 125.78125 L 251.5625 112.304688 C 251.5625 99.859375 241.554688 89.84375 229.101562 89.84375 L 76.367188 89.84375 C 63.921875 89.84375 53.90625 99.859375 53.90625 112.304688 "/>
<use xlink:href="#surface8" mask="url(#mask1)"/>
<path style=" stroke:none;fill-rule:nonzero;fill:rgb(89.411765%,89.411765%,89.411765%);fill-opacity:1;" d="M 112.304688 161.71875 L 444.726562 161.71875 C 457.132812 161.71875 467.1875 171.773438 467.1875 184.179688 L 467.1875 318.945312 C 467.1875 331.351562 457.132812 341.40625 444.726562 341.40625 L 112.304688 341.40625 C 99.898438 341.40625 89.84375 331.351562 89.84375 318.945312 L 89.84375 184.179688 C 89.84375 171.773438 99.898438 161.71875 112.304688 161.71875 Z M 112.304688 161.71875 "/>
<path style=" stroke:none;fill-rule:nonzero;fill:rgb(8.627451%,62.745098%,52.156863%);fill-opacity:1;" d="M 76.367188 197.65625 L 480.664062 197.65625 C 493.070312 197.65625 503.125 207.710938 503.125 220.117188 L 503.125 462.695312 C 503.125 475.101562 493.070312 485.15625 480.664062 485.15625 L 76.367188 485.15625 C 63.960938 485.15625 53.90625 475.101562 53.90625 462.695312 L 53.90625 220.117188 C 53.90625 207.710938 63.960938 197.65625 76.367188 197.65625 Z M 76.367188 197.65625 "/>
<use xlink:href="#surface11" mask="url(#mask2)"/>
<path style=" stroke:none;fill-rule:nonzero;fill:rgb(3.137255%,21.960784%,18.039216%);fill-opacity:1;" d="M 269.53125 251.5625 L 269.53125 323.4375 L 233.59375 323.4375 L 287.5 395.3125 L 341.40625 323.4375 L 305.46875 323.4375 L 305.46875 251.5625 Z M 215.625 395.3125 L 215.625 431.25 L 359.375 431.25 L 359.375 395.3125 Z M 215.625 395.3125 "/>
</g>
</svg>
