<?xml version="1.0" encoding="UTF-8"?>
<svg xmlns="http://www.w3.org/2000/svg" xmlns:xlink="http://www.w3.org/1999/xlink" width="27px" height="27px" viewBox="0 0 27 27" version="1.1">
<g id="surface1">
<path style=" stroke:none;fill-rule:nonzero;fill:rgb(40.784314%,43.529412%,58.823529%);fill-opacity:1;" d="M 10.820312 14.089844 C 10.808594 14.078125 10.792969 14.070312 10.785156 14.058594 C 10.433594 13.785156 9.972656 13.679688 9.535156 13.761719 C 9.097656 13.851562 8.71875 14.128906 8.496094 14.519531 C 8.171875 15.089844 8.25 15.8125 8.691406 16.300781 L 11.425781 19.351562 L 11.542969 21.550781 C 11.554688 21.761719 11.730469 21.929688 11.941406 21.929688 L 18.71875 21.929688 C 18.9375 21.929688 19.117188 21.75 19.117188 21.53125 L 19.117188 20.96875 L 19.640625 18.269531 C 19.644531 18.242188 19.644531 18.21875 19.644531 18.195312 L 19.644531 14.957031 C 19.644531 14.246094 19.0625 13.667969 18.351562 13.667969 C 18.148438 13.667969 17.960938 13.714844 17.792969 13.792969 C 17.628906 13.269531 17.136719 12.894531 16.558594 12.894531 C 16.34375 12.894531 16.132812 12.945312 15.953125 13.046875 C 15.8125 12.71875 15.539062 12.460938 15.210938 12.339844 C 15.8125 11.75 16.140625 11.011719 16.140625 10.226562 L 16.140625 8.535156 C 16.140625 8.523438 16.140625 8.515625 16.140625 8.511719 C 16.140625 8.5 16.140625 8.484375 16.140625 8.472656 C 16.140625 6.59375 14.167969 5.0625 11.75 5.0625 C 9.328125 5.0625 7.355469 6.59375 7.355469 8.472656 C 7.355469 8.484375 7.355469 8.496094 7.355469 8.507812 C 7.355469 8.515625 7.355469 8.523438 7.355469 8.539062 L 7.355469 10.230469 C 7.355469 12.09375 9.285156 13.609375 11.679688 13.640625 L 11.679688 14.949219 Z M 15.265625 15.902344 C 15.265625 16.117188 15.445312 16.300781 15.660156 16.300781 C 15.878906 16.300781 16.058594 16.117188 16.058594 15.902344 L 16.058594 14.191406 C 16.058594 13.917969 16.285156 13.6875 16.558594 13.6875 C 16.832031 13.6875 17.058594 13.917969 17.058594 14.191406 L 17.058594 16.300781 C 17.058594 16.515625 17.238281 16.695312 17.453125 16.695312 C 17.671875 16.695312 17.851562 16.515625 17.851562 16.300781 L 17.851562 14.96875 C 17.851562 14.691406 18.078125 14.46875 18.351562 14.46875 C 18.625 14.46875 18.851562 14.691406 18.851562 14.96875 L 18.851562 18.164062 L 18.328125 20.867188 C 18.324219 20.890625 18.324219 20.914062 18.324219 20.941406 L 18.324219 21.140625 L 12.308594 21.140625 L 12.207031 19.179688 C 12.203125 19.089844 12.164062 19.007812 12.105469 18.9375 L 9.28125 15.777344 C 9.066406 15.539062 9.027344 15.1875 9.183594 14.90625 C 9.289062 14.71875 9.472656 14.585938 9.695312 14.535156 C 9.894531 14.496094 10.117188 14.546875 10.28125 14.667969 L 11.792969 16.183594 C 11.910156 16.292969 12.082031 16.328125 12.230469 16.269531 C 12.375 16.207031 12.472656 16.0625 12.472656 15.902344 L 12.472656 10.921875 C 12.472656 10.648438 12.699219 10.417969 12.972656 10.417969 C 13.246094 10.417969 13.472656 10.648438 13.472656 10.921875 L 13.472656 15.5625 C 13.472656 15.777344 13.652344 15.957031 13.867188 15.957031 C 14.085938 15.957031 14.265625 15.777344 14.265625 15.5625 L 14.265625 13.558594 C 14.265625 13.285156 14.492188 13.054688 14.765625 13.054688 C 15.039062 13.054688 15.265625 13.285156 15.265625 13.558594 Z M 15.335938 10.449219 C 15.261719 11.078125 14.875 11.660156 14.261719 12.097656 L 14.261719 11.277344 C 14.6875 11.050781 15.050781 10.773438 15.335938 10.449219 Z M 11.75 5.859375 C 13.734375 5.859375 15.351562 7.035156 15.351562 8.480469 C 15.351562 8.492188 15.351562 8.507812 15.351562 8.515625 C 15.351562 8.519531 15.351562 8.519531 15.351562 8.523438 C 15.335938 9.253906 14.898438 9.9375 14.164062 10.417969 C 13.96875 9.957031 13.507812 9.628906 12.972656 9.628906 C 12.261719 9.628906 11.679688 10.207031 11.679688 10.921875 L 11.679688 11.101562 C 9.730469 11.074219 8.152344 9.910156 8.152344 8.480469 C 8.148438 7.035156 9.765625 5.859375 11.75 5.859375 Z M 8.164062 10.441406 C 8.945312 11.300781 10.230469 11.871094 11.679688 11.886719 L 11.679688 12.84375 C 9.824219 12.820312 8.308594 11.769531 8.164062 10.441406 Z M 8.164062 10.441406 "/>
<path style=" stroke:none;fill-rule:nonzero;fill:rgb(40.784314%,43.529412%,58.823529%);fill-opacity:1;" d="M 11.75 9.785156 C 11.964844 9.785156 12.144531 9.605469 12.144531 9.390625 L 12.144531 7.566406 C 12.144531 7.351562 11.964844 7.171875 11.75 7.171875 C 11.53125 7.171875 11.355469 7.351562 11.355469 7.566406 L 11.355469 9.390625 C 11.355469 9.605469 11.53125 9.785156 11.75 9.785156 Z M 11.75 9.785156 "/>
</g>
</svg>
