<?xml version="1.0" encoding="UTF-8"?>
<svg xmlns="http://www.w3.org/2000/svg" xmlns:xlink="http://www.w3.org/1999/xlink" width="24px" height="24px" viewBox="0 0 24 24" version="1.1">
<g id="surface1">
<path style=" stroke:none;fill-rule:nonzero;fill:rgb(95.294118%,97.647059%,100%);fill-opacity:1;" d="M 6.75 1.5 C 6.140625 1.5 5.554688 1.742188 5.121094 2.171875 C 4.6875 2.605469 4.445312 3.191406 4.449219 3.800781 L 4.449219 12.53125 C 2.25 13.605469 1.085938 16.050781 1.632812 18.433594 C 2.183594 20.8125 4.304688 22.5 6.75 22.5 C 9.195312 22.5 11.316406 20.8125 11.867188 18.433594 C 12.414062 16.050781 11.25 13.605469 9.050781 12.53125 L 9.050781 3.800781 C 9.054688 3.191406 8.8125 2.605469 8.378906 2.171875 C 7.945312 1.742188 7.359375 1.5 6.75 1.5 Z M 6.75 1.5 "/>
<path style=" stroke:none;fill-rule:nonzero;fill:rgb(100%,32.156863%,44.705882%);fill-opacity:1;" d="M 6.75 2.964844 C 6.296875 2.964844 5.933594 3.332031 5.933594 3.785156 L 5.933594 13.585938 C 4.066406 14.003906 2.8125 15.757812 3.023438 17.65625 C 3.230469 19.558594 4.839844 20.996094 6.75 20.996094 C 8.660156 20.996094 10.269531 19.558594 10.476562 17.65625 C 10.6875 15.757812 9.433594 14.003906 7.566406 13.585938 L 7.566406 3.785156 C 7.566406 3.332031 7.203125 2.964844 6.75 2.964844 Z M 6.75 2.964844 "/>
<path style=" stroke:none;fill-rule:nonzero;fill:rgb(90.196078%,29.019608%,40.784314%);fill-opacity:1;" d="M 8.84375 17.222656 C 8.84375 18.378906 7.910156 19.320312 6.753906 19.320312 C 5.597656 19.320312 4.65625 18.386719 4.65625 17.230469 C 4.65625 16.074219 5.59375 15.136719 6.75 15.136719 C 7.902344 15.136719 8.839844 16.070312 8.84375 17.222656 Z M 8.84375 17.222656 "/>
<path style=" stroke:none;fill-rule:nonzero;fill:rgb(100%,93.72549%,32.156863%);fill-opacity:1;" d="M 18.816406 8.289062 C 18.816406 9.578125 17.769531 10.628906 16.476562 10.628906 C 15.183594 10.628906 14.136719 9.578125 14.136719 8.289062 C 14.136719 6.996094 15.183594 5.949219 16.476562 5.949219 C 17.769531 5.949219 18.816406 6.996094 18.816406 8.289062 Z M 18.816406 8.289062 "/>
<path style=" stroke:none;fill-rule:nonzero;fill:rgb(100%,93.72549%,32.156863%);fill-opacity:1;" d="M 16.476562 2.25 C 16.773438 2.25 17.015625 2.488281 17.015625 2.785156 L 17.015625 4.125 C 17.015625 4.421875 16.773438 4.660156 16.476562 4.660156 C 16.179688 4.660156 15.941406 4.421875 15.941406 4.125 L 15.941406 2.796875 C 15.9375 2.652344 15.992188 2.515625 16.09375 2.410156 C 16.195312 2.308594 16.332031 2.25 16.476562 2.25 Z M 16.476562 2.25 "/>
<path style=" stroke:none;fill-rule:nonzero;fill:rgb(100%,93.72549%,32.156863%);fill-opacity:1;" d="M 16.476562 11.914062 C 16.773438 11.914062 17.015625 12.152344 17.015625 12.449219 L 17.015625 13.773438 C 17.015625 14.070312 16.773438 14.308594 16.476562 14.308594 C 16.179688 14.308594 15.941406 14.070312 15.941406 13.773438 L 15.941406 12.449219 C 15.941406 12.152344 16.179688 11.914062 16.476562 11.914062 Z M 16.476562 11.914062 "/>
<path style=" stroke:none;fill-rule:nonzero;fill:rgb(100%,93.72549%,32.156863%);fill-opacity:1;" d="M 22.5 8.289062 C 22.5 8.582031 22.261719 8.824219 21.964844 8.824219 L 20.625 8.824219 C 20.328125 8.824219 20.089844 8.582031 20.089844 8.289062 C 20.089844 7.992188 20.328125 7.75 20.625 7.75 L 21.949219 7.75 C 22.09375 7.746094 22.234375 7.800781 22.339844 7.902344 C 22.441406 8.003906 22.5 8.140625 22.5 8.289062 Z M 22.5 8.289062 "/>
<path style=" stroke:none;fill-rule:nonzero;fill:rgb(100%,93.72549%,32.156863%);fill-opacity:1;" d="M 12.847656 8.289062 C 12.847656 8.429688 12.792969 8.566406 12.691406 8.667969 C 12.589844 8.769531 12.453125 8.824219 12.3125 8.824219 L 10.988281 8.824219 C 10.691406 8.824219 10.453125 8.582031 10.453125 8.289062 C 10.453125 7.992188 10.691406 7.75 10.988281 7.75 L 12.3125 7.75 C 12.453125 7.75 12.589844 7.804688 12.691406 7.90625 C 12.792969 8.007812 12.847656 8.144531 12.847656 8.289062 Z M 12.847656 8.289062 "/>
<path style=" stroke:none;fill-rule:nonzero;fill:rgb(100%,93.72549%,32.156863%);fill-opacity:1;" d="M 20.738281 4.027344 C 20.945312 4.234375 20.945312 4.570312 20.738281 4.777344 L 19.800781 5.714844 C 19.675781 5.882812 19.460938 5.964844 19.257812 5.921875 C 19.050781 5.875 18.890625 5.714844 18.84375 5.507812 C 18.800781 5.304688 18.878906 5.089844 19.050781 4.964844 L 19.984375 4.03125 C 20.191406 3.824219 20.527344 3.824219 20.738281 4.027344 Z M 20.738281 4.027344 "/>
<path style=" stroke:none;fill-rule:nonzero;fill:rgb(100%,93.72549%,32.156863%);fill-opacity:1;" d="M 13.914062 10.851562 C 14.117188 11.058594 14.117188 11.394531 13.914062 11.601562 L 12.976562 12.535156 C 12.761719 12.695312 12.464844 12.671875 12.277344 12.484375 C 12.089844 12.296875 12.066406 12 12.226562 11.785156 L 13.164062 10.851562 C 13.371094 10.648438 13.703125 10.648438 13.914062 10.851562 Z M 13.914062 10.851562 "/>
<path style=" stroke:none;fill-rule:nonzero;fill:rgb(100%,93.72549%,32.156863%);fill-opacity:1;" d="M 20.738281 12.542969 C 20.527344 12.746094 20.195312 12.746094 19.988281 12.542969 L 19.042969 11.625 C 18.882812 11.410156 18.90625 11.113281 19.09375 10.925781 C 19.28125 10.738281 19.578125 10.71875 19.792969 10.875 L 20.730469 11.808594 C 20.9375 12.015625 20.9375 12.351562 20.730469 12.558594 Z M 20.738281 12.542969 "/>
<path style=" stroke:none;fill-rule:nonzero;fill:rgb(100%,93.72549%,32.156863%);fill-opacity:1;" d="M 13.914062 5.722656 C 13.703125 5.929688 13.371094 5.929688 13.164062 5.722656 L 12.226562 4.785156 C 12.066406 4.570312 12.089844 4.273438 12.277344 4.085938 C 12.464844 3.898438 12.761719 3.878906 12.976562 4.035156 L 13.914062 4.96875 C 14.113281 5.179688 14.113281 5.507812 13.914062 5.71875 Z M 13.914062 5.722656 "/>
<path style=" stroke:none;fill-rule:nonzero;fill:rgb(10.588235%,12.941176%,17.647059%);fill-opacity:1;" d="M 6.75 22.875 C 9.324219 22.875 11.570312 21.125 12.203125 18.632812 C 12.832031 16.136719 11.691406 13.53125 9.425781 12.304688 L 9.425781 3.800781 C 9.425781 2.324219 8.230469 1.125 6.75 1.125 C 5.269531 1.125 4.074219 2.324219 4.074219 3.800781 L 4.074219 12.304688 C 1.808594 13.53125 0.667969 16.136719 1.296875 18.632812 C 1.929688 21.125 4.175781 22.875 6.75 22.875 Z M 4.613281 12.871094 C 4.742188 12.808594 4.824219 12.675781 4.824219 12.53125 L 4.824219 3.800781 C 4.824219 2.738281 5.683594 1.875 6.75 1.875 C 7.816406 1.875 8.675781 2.738281 8.675781 3.800781 L 8.675781 3.910156 L 7.925781 3.910156 L 7.925781 3.785156 C 7.925781 3.125 7.394531 2.589844 6.734375 2.589844 C 6.078125 2.589844 5.542969 3.125 5.542969 3.785156 L 5.542969 13.292969 C 3.570312 13.875 2.324219 15.824219 2.628906 17.859375 C 2.933594 19.894531 4.691406 21.394531 6.75 21.375 C 8.816406 21.402344 10.582031 19.894531 10.882812 17.851562 C 11.183594 15.808594 9.925781 13.859375 7.941406 13.285156 L 7.941406 11.460938 L 8.691406 11.460938 L 8.691406 12.53125 C 8.691406 12.675781 8.773438 12.808594 8.902344 12.871094 C 10.941406 13.863281 12.027344 16.136719 11.515625 18.347656 C 11.003906 20.558594 9.035156 22.125 6.765625 22.125 C 4.496094 22.125 2.527344 20.558594 2.015625 18.347656 C 1.503906 16.136719 2.585938 13.863281 4.628906 12.871094 Z M 7.941406 8.445312 L 7.941406 6.945312 L 8.691406 6.945312 L 8.691406 8.445312 Z M 8.691406 9.195312 L 8.691406 10.695312 L 7.941406 10.695312 L 7.941406 9.195312 Z M 7.941406 6.195312 L 7.941406 4.660156 L 8.691406 4.660156 L 8.691406 6.179688 Z M 7.5 13.949219 C 9.195312 14.3125 10.339844 15.902344 10.148438 17.628906 C 9.953125 19.351562 8.484375 20.648438 6.75 20.625 C 5.015625 20.648438 3.546875 19.351562 3.351562 17.628906 C 3.160156 15.902344 4.304688 14.3125 6 13.949219 C 6.175781 13.910156 6.296875 13.753906 6.292969 13.574219 L 6.292969 3.785156 C 6.292969 3.539062 6.492188 3.339844 6.734375 3.339844 C 6.980469 3.339844 7.175781 3.539062 7.175781 3.785156 L 7.175781 13.585938 C 7.179688 13.769531 7.316406 13.925781 7.5 13.949219 Z M 7.5 13.949219 "/>
<path style=" stroke:none;fill-rule:nonzero;fill:rgb(10.588235%,12.941176%,17.647059%);fill-opacity:1;" d="M 4.28125 17.222656 C 4.28125 18.585938 5.382812 19.695312 6.746094 19.695312 C 8.109375 19.695312 9.21875 18.59375 9.21875 17.230469 C 9.21875 15.867188 8.113281 14.761719 6.75 14.761719 C 5.390625 14.761719 4.285156 15.863281 4.28125 17.222656 Z M 8.46875 17.222656 C 8.46875 18.171875 7.703125 18.945312 6.753906 18.945312 C 5.804688 18.945312 5.03125 18.179688 5.03125 17.230469 C 5.03125 16.28125 5.800781 15.511719 6.75 15.511719 C 7.695312 15.511719 8.464844 16.277344 8.46875 17.222656 Z M 8.46875 17.222656 "/>
<path style=" stroke:none;fill-rule:nonzero;fill:rgb(10.588235%,12.941176%,17.647059%);fill-opacity:1;" d="M 16.476562 11 C 17.976562 11 19.191406 9.78125 19.191406 8.28125 C 19.191406 6.78125 17.976562 5.566406 16.476562 5.570312 C 14.976562 5.570312 13.761719 6.789062 13.761719 8.289062 C 13.765625 9.785156 14.980469 11 16.476562 11 Z M 16.476562 6.324219 C 17.5625 6.324219 18.441406 7.203125 18.441406 8.289062 C 18.441406 9.371094 17.5625 10.253906 16.476562 10.253906 C 15.390625 10.253906 14.511719 9.371094 14.511719 8.289062 C 14.515625 7.203125 15.394531 6.324219 16.476562 6.324219 Z M 16.476562 6.324219 "/>
<path style=" stroke:none;fill-rule:nonzero;fill:rgb(10.588235%,12.941176%,17.647059%);fill-opacity:1;" d="M 16.476562 5.03125 C 16.980469 5.03125 17.386719 4.625 17.390625 4.125 L 17.390625 2.796875 C 17.390625 2.292969 16.980469 1.886719 16.476562 1.886719 C 15.972656 1.886719 15.566406 2.292969 15.566406 2.796875 L 15.566406 4.125 C 15.566406 4.625 15.976562 5.03125 16.476562 5.03125 Z M 16.316406 2.78125 C 16.316406 2.695312 16.386719 2.621094 16.476562 2.621094 C 16.566406 2.621094 16.640625 2.695312 16.640625 2.78125 L 16.640625 4.125 C 16.640625 4.214844 16.566406 4.285156 16.476562 4.285156 C 16.386719 4.285156 16.316406 4.214844 16.316406 4.125 Z M 16.316406 2.78125 "/>
<path style=" stroke:none;fill-rule:nonzero;fill:rgb(10.588235%,12.941176%,17.647059%);fill-opacity:1;" d="M 15.566406 12.449219 L 15.566406 13.773438 C 15.566406 14.277344 15.972656 14.683594 16.476562 14.683594 C 16.980469 14.683594 17.390625 14.277344 17.390625 13.773438 L 17.390625 12.449219 C 17.390625 11.945312 16.980469 11.539062 16.476562 11.539062 C 15.972656 11.539062 15.566406 11.945312 15.566406 12.449219 Z M 16.640625 12.449219 L 16.640625 13.773438 C 16.640625 13.863281 16.566406 13.933594 16.476562 13.933594 C 16.386719 13.933594 16.316406 13.863281 16.316406 13.773438 L 16.316406 12.449219 C 16.316406 12.359375 16.386719 12.289062 16.476562 12.289062 C 16.566406 12.289062 16.640625 12.359375 16.640625 12.449219 Z M 16.640625 12.449219 "/>
<path style=" stroke:none;fill-rule:nonzero;fill:rgb(10.588235%,12.941176%,17.647059%);fill-opacity:1;" d="M 21.964844 7.375 L 20.625 7.375 C 20.121094 7.375 19.714844 7.785156 19.714844 8.289062 C 19.714844 8.789062 20.121094 9.199219 20.625 9.199219 L 21.949219 9.199219 C 22.453125 9.199219 22.859375 8.789062 22.859375 8.289062 C 22.859375 7.785156 22.453125 7.375 21.949219 7.375 Z M 21.964844 8.449219 L 20.625 8.449219 C 20.535156 8.449219 20.464844 8.375 20.464844 8.289062 C 20.464844 8.199219 20.535156 8.125 20.625 8.125 L 21.949219 8.125 C 22.039062 8.125 22.109375 8.199219 22.109375 8.289062 C 22.109375 8.375 22.039062 8.449219 21.949219 8.449219 Z M 21.964844 8.449219 "/>
<path style=" stroke:none;fill-rule:nonzero;fill:rgb(10.588235%,12.941176%,17.647059%);fill-opacity:1;" d="M 10.988281 9.199219 L 12.3125 9.199219 C 12.816406 9.199219 13.222656 8.789062 13.222656 8.289062 C 13.222656 7.785156 12.816406 7.375 12.3125 7.375 L 10.988281 7.375 C 10.484375 7.375 10.078125 7.785156 10.078125 8.289062 C 10.078125 8.789062 10.484375 9.199219 10.988281 9.199219 Z M 10.988281 8.125 L 12.3125 8.125 C 12.398438 8.125 12.472656 8.199219 12.472656 8.289062 C 12.472656 8.375 12.398438 8.449219 12.3125 8.449219 L 10.988281 8.449219 C 10.898438 8.449219 10.828125 8.375 10.828125 8.289062 C 10.828125 8.199219 10.898438 8.125 10.988281 8.125 Z M 10.988281 8.125 "/>
<path style=" stroke:none;fill-rule:nonzero;fill:rgb(10.588235%,12.941176%,17.647059%);fill-opacity:1;" d="M 19.421875 6.25 C 19.660156 6.257812 19.894531 6.167969 20.066406 6 L 21 5.050781 C 21.359375 4.695312 21.363281 4.117188 21.007812 3.757812 C 20.652344 3.398438 20.074219 3.394531 19.714844 3.75 L 18.777344 4.6875 C 18.519531 4.949219 18.441406 5.339844 18.582031 5.679688 C 18.722656 6.019531 19.054688 6.238281 19.421875 6.238281 Z M 19.304688 5.226562 L 20.25 4.292969 C 20.28125 4.261719 20.320312 4.246094 20.363281 4.246094 C 20.40625 4.246094 20.449219 4.261719 20.480469 4.292969 C 20.507812 4.324219 20.527344 4.363281 20.527344 4.40625 C 20.527344 4.449219 20.507812 4.488281 20.480469 4.519531 L 19.542969 5.457031 C 19.476562 5.519531 19.375 5.519531 19.3125 5.457031 C 19.25 5.394531 19.25 5.289062 19.3125 5.226562 Z M 19.304688 5.226562 "/>
<path style=" stroke:none;fill-rule:nonzero;fill:rgb(10.588235%,12.941176%,17.647059%);fill-opacity:1;" d="M 12.890625 10.585938 L 11.953125 11.523438 C 11.597656 11.878906 11.597656 12.453125 11.953125 12.808594 C 12.308594 13.164062 12.882812 13.164062 13.242188 12.808594 L 14.175781 11.871094 C 14.492188 11.511719 14.476562 10.964844 14.136719 10.625 C 13.796875 10.285156 13.25 10.265625 12.890625 10.585938 Z M 13.640625 11.335938 L 12.703125 12.273438 C 12.671875 12.304688 12.632812 12.320312 12.589844 12.320312 C 12.546875 12.320312 12.507812 12.304688 12.476562 12.273438 C 12.445312 12.242188 12.429688 12.203125 12.429688 12.160156 C 12.429688 12.117188 12.445312 12.074219 12.476562 12.046875 L 13.410156 11.109375 C 13.441406 11.078125 13.484375 11.0625 13.527344 11.0625 C 13.566406 11.0625 13.609375 11.078125 13.640625 11.109375 C 13.671875 11.136719 13.691406 11.179688 13.695312 11.222656 C 13.695312 11.269531 13.679688 11.3125 13.644531 11.34375 Z M 13.640625 11.335938 "/>
<path style=" stroke:none;fill-rule:nonzero;fill:rgb(10.588235%,12.941176%,17.647059%);fill-opacity:1;" d="M 18.777344 11.871094 L 19.714844 12.808594 C 19.976562 13.066406 20.367188 13.144531 20.707031 13.003906 C 21.042969 12.863281 21.265625 12.53125 21.269531 12.164062 C 21.269531 11.921875 21.171875 11.691406 21 11.523438 L 20.066406 10.585938 C 19.707031 10.246094 19.144531 10.253906 18.796875 10.601562 C 18.449219 10.953125 18.4375 11.511719 18.777344 11.871094 Z M 19.304688 11.121094 C 19.335938 11.09375 19.378906 11.078125 19.421875 11.078125 C 19.464844 11.078125 19.503906 11.09375 19.535156 11.121094 L 20.472656 12.058594 C 20.503906 12.089844 20.519531 12.132812 20.519531 12.175781 C 20.519531 12.21875 20.503906 12.257812 20.472656 12.289062 C 20.441406 12.320312 20.398438 12.335938 20.355469 12.335938 C 20.3125 12.335938 20.273438 12.320312 20.242188 12.289062 L 19.304688 11.351562 C 19.273438 11.320312 19.253906 11.277344 19.253906 11.234375 C 19.253906 11.1875 19.273438 11.144531 19.304688 11.113281 Z M 19.304688 11.121094 "/>
<path style=" stroke:none;fill-rule:nonzero;fill:rgb(10.588235%,12.941176%,17.647059%);fill-opacity:1;" d="M 12.890625 6 C 13.246094 6.355469 13.820312 6.355469 14.175781 6 C 14.347656 5.828125 14.441406 5.597656 14.441406 5.355469 C 14.441406 5.117188 14.347656 4.882812 14.175781 4.714844 L 13.242188 3.75 C 12.878906 3.40625 12.3125 3.40625 11.953125 3.75 C 11.597656 4.109375 11.597656 4.683594 11.953125 5.039062 Z M 12.484375 4.308594 C 12.511719 4.277344 12.554688 4.261719 12.597656 4.261719 C 12.640625 4.261719 12.679688 4.277344 12.707031 4.308594 L 13.644531 5.242188 C 13.710938 5.304688 13.710938 5.40625 13.644531 5.472656 C 13.582031 5.535156 13.480469 5.535156 13.417969 5.472656 L 12.484375 4.535156 C 12.449219 4.503906 12.429688 4.460938 12.429688 4.414062 C 12.429688 4.367188 12.449219 4.324219 12.484375 4.292969 Z M 12.484375 4.308594 "/>
</g>
</svg>
