<?xml version="1.0" encoding="UTF-8"?>
<svg xmlns="http://www.w3.org/2000/svg" xmlns:xlink="http://www.w3.org/1999/xlink" width="24px" height="24px" viewBox="0 0 24 24" version="1.1">
<g id="surface1">
<path style=" stroke:none;fill-rule:nonzero;fill:rgb(40.392157%,72.941176%,92.156863%);fill-opacity:1;" d="M 20.105469 12.808594 C 20.105469 16.734375 16.917969 19.921875 12.992188 19.921875 C 9.0625 19.921875 5.878906 16.734375 5.878906 12.808594 C 5.878906 8.878906 9.0625 5.695312 12.992188 5.695312 C 16.917969 5.695312 20.105469 8.878906 20.105469 12.808594 Z M 20.105469 12.808594 "/>
<path style=" stroke:none;fill-rule:nonzero;fill:rgb(27.45098%,63.137255%,97.254902%);fill-opacity:1;" d="M 5.878906 12.808594 C 5.878906 13.234375 5.917969 13.660156 5.992188 14.082031 C 6.070312 14.09375 6.152344 14.101562 6.230469 14.101562 C 6.644531 14.101562 7.039062 13.917969 7.304688 13.601562 L 9.535156 10.96875 C 10.636719 9.664062 10.871094 7.835938 10.128906 6.296875 C 7.625 7.394531 5.878906 9.898438 5.878906 12.808594 Z M 5.878906 12.808594 "/>
<path style=" stroke:none;fill-rule:nonzero;fill:rgb(51.372549%,81.568627%,98.431373%);fill-opacity:1;" d="M 19.996094 11.585938 C 19.507812 8.765625 17.359375 6.511719 14.59375 5.875 C 14.417969 6.359375 14.328125 6.867188 14.332031 7.378906 C 14.332031 9.804688 16.296875 11.773438 18.726562 11.773438 C 19.15625 11.773438 19.585938 11.710938 19.996094 11.585938 Z M 19.996094 11.585938 "/>
<path style=" stroke:none;fill-rule:nonzero;fill:rgb(27.45098%,63.137255%,97.254902%);fill-opacity:1;" d="M 16.246094 17.546875 C 11.71875 17.546875 8.046875 13.875 8.046875 9.347656 C 8.046875 8.726562 8.117188 8.105469 8.257812 7.5 C 6.796875 8.800781 5.878906 10.695312 5.878906 12.808594 C 5.878906 16.734375 9.0625 19.921875 12.992188 19.921875 C 15.257812 19.921875 17.277344 18.859375 18.578125 17.207031 C 17.820312 17.433594 17.035156 17.546875 16.246094 17.546875 Z M 16.246094 17.546875 "/>
<path style=" stroke:none;fill-rule:nonzero;fill:rgb(30.196078%,29.803922%,47.058824%);fill-opacity:1;" d="M 17.015625 9.921875 C 17.003906 9.882812 16.996094 9.847656 16.988281 9.808594 C 17.707031 9.667969 18.433594 9.488281 19.164062 9.273438 C 19.0625 9.09375 18.949219 8.917969 18.832031 8.75 C 18.160156 8.941406 17.492188 9.105469 16.832031 9.234375 C 16.644531 8.589844 16.402344 8 16.117188 7.476562 C 15.785156 6.863281 15.402344 6.359375 14.980469 5.976562 C 13.679688 5.601562 12.300781 5.601562 11 5.976562 C 10.578125 6.359375 10.195312 6.863281 9.863281 7.476562 C 9.582031 7.996094 9.34375 8.574219 9.15625 9.207031 C 8.496094 9.0625 7.847656 8.882812 7.207031 8.667969 C 7.089844 8.832031 6.976562 9.003906 6.871094 9.179688 C 7.566406 9.421875 8.277344 9.625 9 9.78125 L 8.96875 9.921875 C 8.777344 10.746094 8.671875 11.613281 8.644531 12.503906 L 5.886719 12.503906 C 5.882812 12.605469 5.878906 12.707031 5.878906 12.808594 C 5.878906 12.910156 5.878906 13.003906 5.886719 13.101562 L 8.640625 13.101562 C 8.65625 14.042969 8.761719 14.960938 8.960938 15.832031 C 8.25 15.988281 7.550781 16.1875 6.867188 16.425781 C 6.96875 16.601562 7.082031 16.773438 7.203125 16.9375 C 7.828125 16.726562 8.460938 16.550781 9.105469 16.410156 C 9.304688 17.105469 9.558594 17.742188 9.863281 18.308594 C 10.128906 18.796875 10.425781 19.214844 10.75 19.558594 C 11.207031 19.710938 11.679688 19.816406 12.160156 19.871094 C 11.957031 19.78125 11.769531 19.667969 11.597656 19.53125 C 11.148438 19.179688 10.738281 18.671875 10.386719 18.023438 C 10.109375 17.511719 9.875 16.929688 9.691406 16.289062 L 9.953125 16.246094 C 10.859375 16.089844 11.773438 16.003906 12.695312 15.992188 L 12.695312 19.914062 C 12.792969 19.917969 12.890625 19.921875 12.992188 19.921875 C 13.09375 19.921875 13.1875 19.917969 13.289062 19.914062 L 13.289062 15.992188 C 14.238281 16.007812 15.1875 16.09375 16.125 16.246094 L 16.292969 16.273438 C 16.109375 16.917969 15.875 17.503906 15.59375 18.023438 C 15.242188 18.671875 14.835938 19.179688 14.386719 19.53125 C 14.210938 19.664062 14.023438 19.78125 13.820312 19.871094 C 14.300781 19.816406 14.773438 19.710938 15.230469 19.558594 C 15.554688 19.214844 15.851562 18.796875 16.117188 18.308594 C 16.429688 17.734375 16.683594 17.089844 16.882812 16.382812 C 17.527344 16.507812 18.183594 16.667969 18.835938 16.859375 C 18.957031 16.6875 19.066406 16.511719 19.167969 16.335938 C 18.453125 16.121094 17.734375 15.941406 17.027344 15.804688 C 17.222656 14.941406 17.324219 14.035156 17.339844 13.101562 L 20.097656 13.101562 C 20.101562 13.003906 20.101562 12.90625 20.101562 12.808594 C 20.101562 12.710938 20.101562 12.605469 20.097656 12.503906 L 17.335938 12.503906 C 17.3125 11.613281 17.203125 10.746094 17.015625 9.921875 Z M 12.695312 15.394531 C 11.742188 15.410156 10.792969 15.5 9.851562 15.65625 C 9.75 15.675781 9.644531 15.691406 9.542969 15.710938 C 9.355469 14.882812 9.253906 14.003906 9.238281 13.101562 L 12.695312 13.101562 Z M 12.695312 12.503906 L 9.242188 12.503906 C 9.261719 11.679688 9.363281 10.859375 9.546875 10.054688 C 9.558594 10.003906 9.570312 9.953125 9.585938 9.898438 L 9.851562 9.949219 C 10.792969 10.105469 11.742188 10.195312 12.695312 10.210938 Z M 12.695312 9.613281 C 11.773438 9.597656 10.859375 9.515625 9.953125 9.359375 L 9.742188 9.324219 C 9.917969 8.753906 10.132812 8.226562 10.386719 7.761719 C 10.738281 7.109375 11.148438 6.605469 11.597656 6.253906 C 11.949219 5.980469 12.316406 5.8125 12.695312 5.753906 Z M 13.289062 5.753906 C 13.664062 5.8125 14.03125 5.980469 14.386719 6.253906 C 14.835938 6.605469 15.242188 7.109375 15.59375 7.761719 C 15.851562 8.234375 16.070312 8.761719 16.246094 9.339844 L 16.125 9.359375 C 15.1875 9.511719 14.238281 9.597656 13.289062 9.613281 Z M 13.289062 10.210938 C 14.269531 10.191406 15.25 10.105469 16.21875 9.949219 L 16.402344 9.917969 L 16.433594 10.054688 C 16.613281 10.835938 16.714844 11.65625 16.738281 12.503906 L 13.289062 12.503906 Z M 16.441406 15.695312 L 16.21875 15.65625 C 15.25 15.5 14.269531 15.414062 13.289062 15.394531 L 13.289062 13.101562 L 16.742188 13.101562 C 16.730469 13.996094 16.628906 14.871094 16.441406 15.695312 Z M 16.441406 15.695312 "/>
<path style=" stroke:none;fill-rule:nonzero;fill:rgb(19.607843%,19.215686%,31.372549%);fill-opacity:1;" d="M 10.386719 18.023438 C 10.109375 17.511719 9.875 16.929688 9.691406 16.289062 L 9.953125 16.246094 C 10.46875 16.15625 10.992188 16.089844 11.519531 16.046875 C 11.289062 15.882812 11.0625 15.703125 10.84375 15.515625 C 10.511719 15.554688 10.179688 15.601562 9.851562 15.65625 C 9.75 15.675781 9.644531 15.691406 9.542969 15.710938 C 9.390625 15.03125 9.292969 14.335938 9.257812 13.632812 C 9.019531 13.25 8.816406 12.851562 8.648438 12.433594 C 8.648438 12.457031 8.648438 12.480469 8.644531 12.503906 L 5.886719 12.503906 C 5.882812 12.605469 5.878906 12.707031 5.878906 12.808594 C 5.878906 12.910156 5.878906 13.003906 5.886719 13.101562 L 8.640625 13.101562 C 8.65625 14.042969 8.761719 14.960938 8.960938 15.832031 C 8.25 15.988281 7.550781 16.1875 6.867188 16.425781 C 6.96875 16.601562 7.082031 16.773438 7.203125 16.9375 C 7.828125 16.726562 8.460938 16.550781 9.105469 16.410156 C 9.304688 17.105469 9.558594 17.742188 9.863281 18.308594 C 10.128906 18.796875 10.425781 19.214844 10.75 19.558594 C 11.207031 19.710938 11.679688 19.816406 12.160156 19.871094 C 11.957031 19.78125 11.769531 19.667969 11.597656 19.53125 C 11.148438 19.179688 10.738281 18.671875 10.386719 18.023438 Z M 10.386719 18.023438 "/>
<path style=" stroke:none;fill-rule:nonzero;fill:rgb(19.607843%,19.215686%,31.372549%);fill-opacity:1;" d="M 8.046875 9.347656 C 8.046875 9.207031 8.050781 9.070312 8.058594 8.929688 C 7.773438 8.851562 7.488281 8.761719 7.207031 8.667969 C 7.089844 8.832031 6.976562 9.003906 6.871094 9.179688 C 7.261719 9.316406 7.652344 9.4375 8.050781 9.546875 C 8.046875 9.480469 8.046875 9.414062 8.046875 9.347656 Z M 8.046875 9.347656 "/>
<path style=" stroke:none;fill-rule:nonzero;fill:rgb(19.607843%,19.215686%,31.372549%);fill-opacity:1;" d="M 12.695312 16.738281 L 12.695312 19.914062 C 12.792969 19.917969 12.890625 19.921875 12.992188 19.921875 C 13.09375 19.921875 13.1875 19.917969 13.289062 19.914062 L 13.289062 16.996094 C 13.085938 16.917969 12.886719 16.832031 12.695312 16.738281 Z M 12.695312 16.738281 "/>
<path style=" stroke:none;fill-rule:nonzero;fill:rgb(19.607843%,19.215686%,31.372549%);fill-opacity:1;" d="M 16.246094 17.546875 C 16.109375 17.546875 15.972656 17.542969 15.835938 17.535156 C 15.761719 17.703125 15.679688 17.867188 15.59375 18.023438 C 15.242188 18.671875 14.835938 19.179688 14.386719 19.53125 C 14.210938 19.664062 14.023438 19.78125 13.820312 19.871094 C 14.300781 19.816406 14.773438 19.710938 15.230469 19.558594 C 15.554688 19.214844 15.851562 18.796875 16.117188 18.308594 C 16.25 18.066406 16.371094 17.808594 16.484375 17.542969 C 16.402344 17.542969 16.324219 17.546875 16.246094 17.546875 Z M 16.246094 17.546875 "/>
<path style=" stroke:none;fill-rule:nonzero;fill:rgb(39.215686%,38.823529%,61.176471%);fill-opacity:1;" d="M 16.832031 9.234375 C 16.644531 8.589844 16.402344 8 16.117188 7.476562 C 15.785156 6.863281 15.402344 6.359375 14.980469 5.976562 C 14.851562 5.941406 14.722656 5.90625 14.59375 5.875 C 14.542969 6.019531 14.496094 6.167969 14.460938 6.3125 C 14.878906 6.660156 15.261719 7.148438 15.59375 7.761719 C 15.851562 8.234375 16.070312 8.761719 16.246094 9.339844 L 16.125 9.359375 C 15.710938 9.425781 15.296875 9.480469 14.886719 9.519531 C 14.996094 9.714844 15.121094 9.902344 15.257812 10.078125 C 15.578125 10.042969 15.898438 10 16.21875 9.949219 L 16.402344 9.917969 L 16.433594 10.054688 C 16.523438 10.449219 16.59375 10.847656 16.644531 11.25 C 16.847656 11.359375 17.058594 11.453125 17.273438 11.527344 C 17.222656 10.988281 17.136719 10.453125 17.015625 9.921875 C 17.003906 9.882812 16.996094 9.847656 16.988281 9.808594 C 17.707031 9.667969 18.433594 9.488281 19.164062 9.273438 C 19.0625 9.09375 18.949219 8.917969 18.832031 8.75 C 18.160156 8.941406 17.492188 9.105469 16.832031 9.234375 Z M 16.832031 9.234375 "/>
<path style=" stroke:none;fill-rule:nonzero;fill:rgb(19.607843%,19.215686%,31.372549%);fill-opacity:1;" d="M 8.234375 12.503906 L 5.886719 12.503906 C 5.882812 12.605469 5.878906 12.707031 5.878906 12.808594 C 5.878906 12.910156 5.878906 13.003906 5.886719 13.101562 L 7.730469 13.101562 Z M 8.234375 12.503906 "/>
<path style=" stroke:none;fill-rule:nonzero;fill:rgb(19.607843%,19.215686%,31.372549%);fill-opacity:1;" d="M 9.546875 10.054688 C 9.558594 10.003906 9.570312 9.953125 9.585938 9.898438 L 9.851562 9.949219 L 10.15625 9.996094 C 10.242188 9.8125 10.316406 9.621094 10.375 9.425781 C 10.230469 9.40625 10.09375 9.386719 9.953125 9.359375 L 9.742188 9.324219 C 9.917969 8.753906 10.132812 8.226562 10.386719 7.761719 C 10.429688 7.683594 10.46875 7.613281 10.511719 7.539062 C 10.472656 7.273438 10.40625 7.007812 10.316406 6.75 C 10.152344 6.984375 10 7.226562 9.863281 7.476562 C 9.582031 7.996094 9.34375 8.574219 9.15625 9.207031 C 8.496094 9.0625 7.847656 8.882812 7.207031 8.667969 C 7.089844 8.832031 6.976562 9.003906 6.871094 9.179688 C 7.566406 9.421875 8.277344 9.625 9 9.78125 L 8.96875 9.921875 C 8.8125 10.601562 8.710938 11.292969 8.671875 11.992188 L 9.34375 11.195312 C 9.394531 10.804688 9.460938 10.425781 9.546875 10.054688 Z M 9.546875 10.054688 "/>
<path style=" stroke:none;fill-rule:nonzero;fill:rgb(95.686275%,76.078431%,24.705882%);fill-opacity:1;" d="M 8.585938 5.421875 C 7.214844 4.046875 4.992188 4.046875 3.621094 5.421875 C 2.328125 6.710938 2.242188 8.777344 3.421875 10.171875 L 5.652344 12.804688 C 5.761719 12.9375 5.929688 13.011719 6.101562 13.011719 C 6.277344 13.011719 6.441406 12.9375 6.554688 12.804688 L 8.78125 10.171875 C 9.960938 8.777344 9.875 6.710938 8.585938 5.421875 Z M 6.101562 8.863281 C 5.527344 8.863281 5.058594 8.398438 5.058594 7.820312 C 5.058594 7.246094 5.527344 6.777344 6.101562 6.777344 C 6.679688 6.777344 7.144531 7.246094 7.144531 7.820312 C 7.144531 8.398438 6.679688 8.863281 6.101562 8.863281 Z M 6.101562 8.863281 "/>
<path style=" stroke:none;fill-rule:nonzero;fill:rgb(95.686275%,76.078431%,24.705882%);fill-opacity:1;" d="M 8.585938 5.421875 C 7.214844 4.046875 4.992188 4.046875 3.621094 5.421875 C 2.328125 6.710938 2.242188 8.777344 3.421875 10.171875 L 5.652344 12.804688 C 5.761719 12.9375 5.929688 13.011719 6.101562 13.011719 C 6.277344 13.011719 6.441406 12.9375 6.554688 12.804688 L 8.78125 10.171875 C 9.960938 8.777344 9.875 6.710938 8.585938 5.421875 Z M 6.101562 8.863281 C 5.527344 8.863281 5.058594 8.398438 5.058594 7.820312 C 5.058594 7.246094 5.527344 6.777344 6.101562 6.777344 C 6.679688 6.777344 7.144531 7.246094 7.144531 7.820312 C 7.144531 8.398438 6.679688 8.863281 6.101562 8.863281 Z M 6.101562 8.863281 "/>
<path style=" stroke:none;fill-rule:nonzero;fill:rgb(98.039216%,83.529412%,39.215686%);fill-opacity:1;" d="M 8.585938 5.421875 C 7.320312 4.152344 5.324219 4.058594 3.949219 5.132812 C 5.1875 4.894531 6.515625 5.257812 7.476562 6.214844 C 8.757812 7.496094 8.980469 9.453125 8.105469 10.972656 L 8.78125 10.171875 C 9.960938 8.777344 9.875 6.710938 8.585938 5.421875 Z M 8.585938 5.421875 "/>
<path style=" stroke:none;fill-rule:nonzero;fill:rgb(95.686275%,66.27451%,24.705882%);fill-opacity:1;" d="M 6.378906 12.304688 L 3.941406 9.425781 C 3.113281 8.449219 2.855469 7.167969 3.152344 6 C 2.332031 7.273438 2.40625 8.972656 3.421875 10.171875 L 5.652344 12.804688 C 5.761719 12.9375 5.929688 13.011719 6.101562 13.011719 C 6.277344 13.011719 6.441406 12.9375 6.554688 12.804688 L 6.789062 12.527344 C 6.628906 12.507812 6.480469 12.429688 6.378906 12.304688 Z M 6.378906 12.304688 "/>
<path style=" stroke:none;fill-rule:nonzero;fill:rgb(95.686275%,66.27451%,24.705882%);fill-opacity:1;" d="M 7.109375 8.09375 C 6.972656 8.605469 6.472656 8.929688 5.949219 8.851562 C 5.421875 8.773438 5.042969 8.3125 5.0625 7.785156 C 5.078125 7.253906 5.492188 6.824219 6.023438 6.78125 L 5.9375 6.777344 C 5.304688 6.777344 4.785156 7.28125 4.757812 7.914062 C 4.734375 8.546875 5.214844 9.085938 5.847656 9.132812 C 6.480469 9.183594 7.039062 8.722656 7.109375 8.09375 Z M 7.109375 8.09375 "/>
</g>
</svg>
