<?xml version="1.0" encoding="UTF-8"?>
<svg xmlns="http://www.w3.org/2000/svg" xmlns:xlink="http://www.w3.org/1999/xlink" width="24px" height="24px" viewBox="0 0 24 24" version="1.1">
<g id="surface1">
<path style=" stroke:none;fill-rule:nonzero;fill:rgb(11.764706%,38.431373%,38.431373%);fill-opacity:1;" d="M 4.03125 14.328125 C 4.03125 13.382812 4.289062 12.296875 4.804688 11.070312 C 5.320312 9.84375 5.988281 8.648438 6.804688 7.511719 C 8.484375 5.296875 9.945312 3.617188 11.171875 2.488281 L 11.976562 1.714844 C 12.246094 1.992188 12.546875 2.253906 12.871094 2.488281 C 13.3125 2.941406 13.988281 3.683594 14.894531 4.734375 C 15.796875 5.789062 16.582031 6.726562 17.226562 7.585938 C 17.988281 8.671875 18.644531 9.84375 19.171875 11.082031 C 19.699219 12.316406 19.96875 13.402344 19.96875 14.339844 C 19.96875 15.414062 19.765625 16.4375 19.34375 17.414062 C 18.925781 18.394531 18.367188 19.242188 17.65625 19.953125 C 16.945312 20.660156 16.097656 21.230469 15.109375 21.652344 C 14.117188 22.070312 13.074219 22.285156 11.976562 22.285156 C 10.902344 22.285156 9.882812 22.082031 8.902344 21.671875 C 7.925781 21.265625 7.074219 20.714844 6.363281 20.007812 C 5.65625 19.308594 5.085938 18.457031 4.667969 17.480469 C 4.246094 16.5 4.03125 15.445312 4.03125 14.328125 Z M 6.460938 11.175781 C 6.460938 12.070312 6.644531 12.78125 7.019531 13.316406 C 7.398438 13.84375 7.96875 14.113281 8.730469 14.113281 C 9.503906 14.113281 10.074219 13.84375 10.460938 13.316406 C 10.839844 12.789062 11.03125 12.082031 11.042969 11.175781 C 11.03125 10.273438 10.839844 9.5625 10.460938 9.027344 C 10.085938 8.5 9.503906 8.230469 8.730469 8.230469 C 7.96875 8.230469 7.398438 8.5 7.019531 9.027344 C 6.644531 9.5625 6.460938 10.273438 6.460938 11.175781 Z M 8.148438 11.175781 C 8.148438 11.015625 8.148438 10.886719 8.148438 10.800781 C 8.148438 10.714844 8.160156 10.597656 8.171875 10.445312 C 8.183594 10.296875 8.191406 10.175781 8.226562 10.101562 C 8.257812 10.027344 8.28125 9.929688 8.324219 9.84375 C 8.367188 9.757812 8.417969 9.683594 8.484375 9.648438 C 8.558594 9.605469 8.632812 9.585938 8.730469 9.585938 C 8.882812 9.585938 9 9.628906 9.085938 9.714844 C 9.171875 9.800781 9.238281 9.941406 9.269531 10.125 C 9.300781 10.316406 9.324219 10.46875 9.332031 10.605469 C 9.34375 10.746094 9.34375 10.929688 9.34375 11.167969 C 9.34375 11.414062 9.34375 11.597656 9.332031 11.726562 C 9.324219 11.855469 9.300781 12.015625 9.269531 12.210938 C 9.238281 12.390625 9.171875 12.53125 9.085938 12.617188 C 9 12.703125 8.882812 12.746094 8.730469 12.746094 C 8.632812 12.746094 8.558594 12.726562 8.484375 12.683594 C 8.410156 12.640625 8.355469 12.574219 8.324219 12.488281 C 8.28125 12.402344 8.246094 12.304688 8.226562 12.230469 C 8.203125 12.144531 8.183594 12.027344 8.171875 11.886719 C 8.160156 11.738281 8.148438 11.617188 8.148438 11.542969 C 8.148438 11.46875 8.148438 11.339844 8.148438 11.175781 Z M 8.785156 19.511719 L 10.203125 19.511719 L 15.570312 7.960938 L 14.117188 7.960938 Z M 13.410156 16.296875 C 13.417969 17.199219 13.625 17.910156 14 18.445312 C 14.375 18.972656 14.957031 19.242188 15.722656 19.242188 C 16.496094 19.242188 17.066406 18.972656 17.441406 18.445312 C 17.816406 17.917969 18 17.199219 18.011719 16.296875 C 18 15.394531 17.816406 14.683594 17.441406 14.15625 C 17.066406 13.628906 16.496094 13.359375 15.722656 13.359375 C 14.957031 13.359375 14.375 13.628906 14 14.15625 C 13.613281 14.683594 13.417969 15.394531 13.410156 16.296875 Z M 15.097656 16.296875 C 15.097656 16.046875 15.097656 15.867188 15.109375 15.738281 C 15.117188 15.609375 15.140625 15.445312 15.171875 15.253906 C 15.203125 15.058594 15.269531 14.929688 15.355469 14.84375 C 15.441406 14.757812 15.558594 14.714844 15.710938 14.714844 C 15.808594 14.714844 15.894531 14.738281 15.96875 14.78125 C 16.042969 14.824219 16.097656 14.886719 16.140625 14.984375 C 16.183594 15.082031 16.214844 15.167969 16.246094 15.242188 C 16.28125 15.316406 16.289062 15.4375 16.300781 15.585938 L 16.3125 15.929688 L 16.3125 16.296875 C 16.3125 16.46875 16.3125 16.597656 16.3125 16.671875 L 16.300781 17.015625 L 16.246094 17.359375 L 16.140625 17.617188 L 15.96875 17.824219 L 15.710938 17.886719 C 15.558594 17.886719 15.441406 17.84375 15.355469 17.757812 C 15.269531 17.671875 15.203125 17.53125 15.171875 17.351562 C 15.140625 17.15625 15.117188 16.996094 15.109375 16.867188 C 15.097656 16.738281 15.097656 16.542969 15.097656 16.296875 Z M 15.097656 16.296875 "/>
</g>
</svg>
