<?xml version="1.0" encoding="UTF-8"?>
<svg xmlns="http://www.w3.org/2000/svg" xmlns:xlink="http://www.w3.org/1999/xlink" width="24px" height="24px" viewBox="0 0 24 24" version="1.1">
<g id="surface1">
<path style=" stroke:none;fill-rule:nonzero;fill:rgb(100%,59.607843%,0%);fill-opacity:1;" d="M 12 1.714844 L 16.316406 6.03125 L 12 10.351562 L 7.683594 6.03125 Z M 12 1.714844 "/>
<path style=" stroke:none;fill-rule:nonzero;fill:rgb(100%,59.607843%,0%);fill-opacity:1;" d="M 8.757812 2.828125 L 15.242188 2.828125 L 15.242188 9.316406 L 8.757812 9.316406 Z M 8.757812 2.828125 "/>
<path style=" stroke:none;fill-rule:nonzero;fill:rgb(100%,92.156863%,23.137255%);fill-opacity:1;" d="M 14.160156 6.074219 C 14.160156 7.265625 13.195312 8.234375 12 8.234375 C 10.804688 8.234375 9.839844 7.265625 9.839844 6.074219 C 9.839844 4.878906 10.804688 3.910156 12 3.910156 C 13.195312 3.910156 14.160156 4.878906 14.160156 6.074219 Z M 14.160156 6.074219 "/>
<path style=" stroke:none;fill-rule:nonzero;fill:rgb(74.901961%,21.176471%,4.705882%);fill-opacity:1;" d="M 3.675781 12.289062 L 1.730469 20.125 L 22.269531 20.125 L 20.324219 12.289062 C 20.214844 11.800781 19.78125 11.476562 19.296875 11.476562 L 4.757812 11.476562 C 4.21875 11.476562 3.785156 11.800781 3.675781 12.289062 Z M 3.675781 12.289062 "/>
<path style=" stroke:none;fill-rule:nonzero;fill:rgb(61.960784%,17.647059%,3.921569%);fill-opacity:1;" d="M 1.730469 21.203125 L 1.730469 20.125 L 22.269531 20.125 L 22.269531 21.203125 C 22.269531 21.800781 21.78125 22.285156 21.1875 22.285156 L 2.8125 22.285156 C 2.21875 22.285156 1.730469 21.800781 1.730469 21.203125 Z M 1.730469 21.203125 "/>
<path style=" stroke:none;fill-rule:nonzero;fill:rgb(96.078431%,48.627451%,0%);fill-opacity:1;" d="M 8.757812 12.558594 L 4.972656 12.558594 L 4.433594 14.71875 L 8.542969 14.71875 Z M 14.160156 12.558594 L 9.839844 12.558594 L 9.675781 14.71875 L 14.324219 14.71875 Z M 19.027344 12.558594 L 15.242188 12.558594 L 15.457031 14.71875 L 19.566406 14.71875 Z M 3.351562 19.042969 L 8.054688 19.042969 L 8.378906 15.800781 L 4.164062 15.800781 Z M 15.945312 19.042969 L 20.648438 19.042969 L 19.835938 15.800781 L 15.621094 15.800781 Z M 9.351562 19.042969 L 14.648438 19.042969 L 14.433594 15.800781 L 9.566406 15.800781 Z M 9.351562 19.042969 "/>
</g>
</svg>
