<?xml version="1.0" encoding="UTF-8"?>
<svg xmlns="http://www.w3.org/2000/svg" xmlns:xlink="http://www.w3.org/1999/xlink" width="24px" height="24px" viewBox="0 0 24 24" version="1.1">
<g id="surface1">
<path style=" stroke:none;fill-rule:nonzero;fill:rgb(17.254902%,57.254902%,76.470588%);fill-opacity:1;" d="M 0 12 L 0 24 L 2.015625 24 L 2.015625 15.445312 L 2.242188 15.304688 C 2.515625 15.132812 3.074219 14.578125 3.277344 14.28125 C 3.496094 13.960938 3.722656 13.480469 3.847656 13.078125 C 3.941406 12.773438 3.960938 12.628906 3.960938 12 C 3.960938 11.371094 3.941406 11.226562 3.847656 10.921875 C 3.722656 10.519531 3.496094 10.039062 3.277344 9.71875 C 3.074219 9.421875 2.515625 8.867188 2.242188 8.695312 L 2.015625 8.554688 L 2.015625 0 L 0 0 Z M 11.996094 0.664062 C 11.230469 1.632812 10.523438 2.769531 9.914062 4.007812 C 8.953125 5.957031 8.429688 7.679688 8.128906 9.867188 C 8.007812 10.730469 8.007812 13.25 8.125 14.128906 C 8.527344 17.09375 9.515625 19.757812 11.140625 22.242188 C 11.582031 22.917969 12.054688 23.574219 12.097656 23.578125 C 12.113281 23.578125 12.449219 23.335938 12.847656 23.035156 C 13.246094 22.738281 13.601562 22.476562 13.640625 22.453125 C 13.703125 22.421875 13.691406 22.390625 13.597656 22.261719 C 11.523438 19.453125 10.410156 16.691406 10.074219 13.5 C 10.003906 12.804688 10.003906 11.195312 10.074219 10.5 C 10.402344 7.378906 11.550781 4.53125 13.5 1.988281 C 13.65625 1.785156 13.765625 1.609375 13.742188 1.589844 C 13.648438 1.492188 12.253906 0.421875 12.226562 0.421875 C 12.207031 0.421875 12.101562 0.535156 11.996094 0.664062 Z M 11.996094 0.664062 "/>
<path style=" stroke:none;fill-rule:nonzero;fill:rgb(17.254902%,57.254902%,76.470588%);fill-opacity:1;" d="M 15.078125 3.289062 C 13.433594 5.351562 12.414062 7.800781 12.085938 10.453125 C 12.007812 11.085938 12.007812 12.914062 12.085938 13.546875 C 12.414062 16.199219 13.433594 18.648438 15.078125 20.710938 L 15.429688 21.144531 L 15.671875 20.9375 C 15.804688 20.828125 16.148438 20.539062 16.4375 20.300781 L 16.964844 19.859375 L 16.847656 19.714844 C 15.355469 17.875 14.539062 16.101562 14.148438 13.847656 C 14.058594 13.320312 14.042969 13.074219 14.042969 12 C 14.042969 10.925781 14.058594 10.679688 14.148438 10.152344 C 14.539062 7.898438 15.355469 6.125 16.847656 4.285156 L 16.964844 4.140625 L 16.4375 3.699219 C 16.148438 3.460938 15.804688 3.171875 15.671875 3.0625 L 15.429688 2.855469 Z M 15.078125 3.289062 "/>
<path style=" stroke:none;fill-rule:nonzero;fill:rgb(17.254902%,57.254902%,76.470588%);fill-opacity:1;" d="M 18.355469 5.679688 C 16.8125 7.515625 16.023438 9.652344 16.023438 12 C 16.023438 14.347656 16.8125 16.484375 18.355469 18.320312 C 18.589844 18.601562 18.640625 18.640625 18.703125 18.589844 C 18.742188 18.558594 19.078125 18.273438 19.453125 17.953125 C 19.828125 17.632812 20.140625 17.367188 20.152344 17.363281 C 20.160156 17.351562 20.054688 17.21875 19.914062 17.054688 C 18.828125 15.8125 18.183594 14.277344 18.042969 12.625 C 17.863281 10.585938 18.546875 8.515625 19.914062 6.945312 C 20.054688 6.78125 20.160156 6.648438 20.152344 6.636719 C 20.140625 6.632812 19.828125 6.367188 19.453125 6.046875 C 19.078125 5.726562 18.742188 5.441406 18.703125 5.410156 C 18.640625 5.359375 18.589844 5.398438 18.355469 5.679688 Z M 18.355469 5.679688 "/>
<path style=" stroke:none;fill-rule:nonzero;fill:rgb(17.254902%,57.254902%,76.470588%);fill-opacity:1;" d="M 21.46875 8.421875 C 20.128906 9.882812 19.679688 11.808594 20.273438 13.574219 C 20.515625 14.292969 20.949219 15.019531 21.484375 15.585938 L 21.792969 15.914062 L 22.496094 15.210938 L 23.203125 14.511719 L 23.042969 14.34375 C 22.375 13.636719 22.023438 12.835938 22.023438 12 C 22.023438 11.527344 22.121094 11.117188 22.339844 10.65625 C 22.492188 10.339844 22.941406 9.722656 23.128906 9.566406 C 23.203125 9.507812 23.152344 9.441406 22.515625 8.804688 C 22.132812 8.421875 21.804688 8.109375 21.792969 8.109375 C 21.773438 8.109375 21.628906 8.25 21.46875 8.421875 Z M 21.46875 8.421875 "/>
</g>
</svg>
